<?xml version="1.0" encoding="UTF-8"?>
<svg xmlns="http://www.w3.org/2000/svg" xmlns:xlink="http://www.w3.org/1999/xlink" width="25px" height="13px" viewBox="0 0 26 13" version="1.1">
<g id="surface1">
<path style=" stroke:none;fill-rule:nonzero;fill:rgb(100%,0%,0%);fill-opacity:1;" d="M 0 0 L 6.5 0 L 6.769531 0.269531 L 19.230469 0.269531 L 19.5 0 L 26 0 L 26 13 L 19.5 13 L 19.230469 12.730469 L 6.769531 12.730469 L 6.5 13 L 0 13 Z M 0 0 "/>
<path style=" stroke:none;fill-rule:nonzero;fill:rgb(100%,100%,100%);fill-opacity:1;" d="M 6.5 0 L 19.5 0 L 19.5 13 L 6.5 13 Z M 13.242188 11.996094 L 13.121094 9.660156 C 13.117188 9.582031 13.148438 9.507812 13.207031 9.457031 C 13.265625 9.40625 13.34375 9.382812 13.421875 9.394531 L 15.75 9.804688 L 15.433594 8.9375 C 15.410156 8.867188 15.429688 8.789062 15.488281 8.738281 L 18.039062 6.675781 L 17.464844 6.40625 C 17.382812 6.371094 17.34375 6.277344 17.371094 6.195312 L 17.875 4.644531 L 16.40625 4.957031 C 16.324219 4.972656 16.242188 4.929688 16.210938 4.851562 L 15.925781 4.183594 L 14.78125 5.414062 C 14.726562 5.472656 14.640625 5.484375 14.570312 5.449219 C 14.5 5.414062 14.464844 5.335938 14.480469 5.257812 L 15.03125 2.410156 L 14.144531 2.921875 C 14.105469 2.945312 14.054688 2.953125 14.007812 2.9375 C 13.960938 2.925781 13.921875 2.894531 13.898438 2.847656 L 13 1.082031 L 12.101562 2.847656 C 12.078125 2.894531 12.039062 2.925781 11.992188 2.9375 C 11.945312 2.953125 11.894531 2.945312 11.855469 2.921875 L 10.96875 2.410156 L 11.519531 5.257812 C 11.535156 5.335938 11.5 5.414062 11.429688 5.449219 C 11.359375 5.484375 11.273438 5.472656 11.21875 5.414062 L 10.074219 4.183594 L 9.789062 4.851562 C 9.757812 4.929688 9.675781 4.972656 9.59375 4.957031 L 8.125 4.644531 L 8.628906 6.195312 C 8.65625 6.277344 8.617188 6.371094 8.535156 6.40625 L 7.960938 6.675781 L 10.511719 8.738281 C 10.570312 8.789062 10.589844 8.867188 10.566406 8.9375 L 10.25 9.804688 L 12.578125 9.394531 C 12.65625 9.382812 12.734375 9.40625 12.792969 9.457031 C 12.851562 9.507812 12.882812 9.582031 12.878906 9.660156 L 12.757812 11.996094 Z M 13.242188 11.996094 "/>
</g>
</svg>
